<svg width="62" height="77" viewBox="0 0 62 77" fill="none" xmlns="http://www.w3.org/2000/svg">
<path fill-rule="evenodd" clip-rule="evenodd" d="M1.03043 39.3772C3.23506 34.3532 8.21067 29 8.21067 29C8.21067 29 15.9273 36.7666 16.8247 41.7124C16.9396 42.2731 17 42.8538 17 43.4487C17 48.1715 13.1961 52 8.50372 52C3.92955 52 0.199643 48.3619 0.0146333 43.8039C0.0108732 43.7838 0.00845604 43.7637 0.00740659 43.7436C-0.00648157 43.478 -0.00061955 43.2045 0.0231514 42.9243C0.0999916 41.6459 0.455921 40.4432 1.03043 39.3772Z" fill="#95B8CC"/>
<path fill-rule="evenodd" clip-rule="evenodd" d="M34.2729 46.0844C36.9963 39.7497 43.1426 33 43.1426 33C43.1426 33 52.6749 42.7926 53.7835 49.0286C53.9254 49.7355 54 50.4678 54 51.2179C54 57.1727 49.301 62 43.5046 62C37.8542 62 33.2466 57.4128 33.0181 51.6657C33.0134 51.6404 33.0104 51.615 33.0091 51.5897C32.992 51.2549 32.9992 50.91 33.0286 50.5568C33.1235 48.9448 33.5632 47.4284 34.2729 46.0844Z" fill="#95B8CC"/>
<path fill-rule="evenodd" clip-rule="evenodd" d="M46.9698 10.3772C49.0448 5.35321 53.7277 0 53.7277 0C53.7277 0 60.9904 7.76657 61.835 12.7123C61.9432 13.273 62 13.8538 62 14.4487C62 19.1715 58.4198 23 54.0035 23C49.6984 23 46.1879 19.3619 46.0138 14.8039C46.0102 14.7838 46.008 14.7637 46.007 14.7436C45.9939 14.478 45.9994 14.2045 46.0218 13.9243C46.0941 12.6459 46.4291 11.4432 46.9698 10.3772Z" fill="#95B8CC"/>
<path fill-rule="evenodd" clip-rule="evenodd" d="M14.9698 64.3772C17.0448 59.3532 21.7277 54 21.7277 54C21.7277 54 28.9904 61.7666 29.835 66.7123C29.9432 67.273 30 67.8538 30 68.4487C30 73.1715 26.4198 77 22.0035 77C17.6984 77 14.1879 73.3619 14.0138 68.8039C14.0102 68.7838 14.008 68.7637 14.007 68.7436C13.9939 68.478 13.9994 68.2045 14.0218 67.9243C14.0941 66.6459 14.4291 65.4432 14.9698 64.3772Z" fill="#95B8CC"/>
<path fill-rule="evenodd" clip-rule="evenodd" d="M18.2729 15.0844C20.9963 8.7497 27.1426 2 27.1426 2C27.1426 2 36.6749 11.7926 37.7835 18.0286C37.9254 18.7355 38 19.4678 38 20.2179C38 26.1727 33.301 31 27.5046 31C21.8542 31 17.2466 26.4128 17.0181 20.6657C17.0134 20.6404 17.0104 20.615 17.0091 20.5897C16.992 20.2549 16.9992 19.91 17.0286 19.5568C17.1235 17.9448 17.5632 16.4284 18.2729 15.0844Z" fill="#95B8CC"/>
</svg>
