<svg width="17" height="17" viewBox="0 0 17 17" fill="none" xmlns="http://www.w3.org/2000/svg">
<g id="Union">
<path id="Union_2" fill-rule="evenodd" clip-rule="evenodd" d="M2 6C2 8.20914 3.79086 10 6 10C6.92699 10 7.78033 9.68467 8.45861 9.15542C8.49501 9.1005 8.5374 9.04839 8.58579 9C8.66327 8.92252 8.75031 8.86041 8.84311 8.81367C9.55833 8.09101 10 7.09708 10 6C10 3.79086 8.20914 2 6 2C3.79086 2 2 3.79086 2 6ZM10.7133 9.71325C11.5191 8.69179 12 7.40205 12 6C12 2.68629 9.31371 0 6 0C2.68629 0 0 2.68629 0 6C0 9.31371 2.68629 12 6 12C7.18889 12 8.29702 11.6542 9.2293 11.0577L14.5858 16.4142C14.9763 16.8047 15.6095 16.8047 16 16.4142C16.3905 16.0237 16.3905 15.3905 16 15L10.7133 9.71325Z" fill="#0D0D0D"/>
</g>
</svg>
