<svg width="35" height="33" viewBox="0 0 35 33" fill="none" xmlns="http://www.w3.org/2000/svg">
<g id="Wind">
<path id="Union" fill-rule="evenodd" clip-rule="evenodd" d="M11.1402 2.0625C11.1402 0.95793 12.0357 0.0625 13.1402 0.0625C15.3489 0.0625 17.2061 0.686091 18.5381 1.83987C19.8759 2.99873 20.5613 4.59683 20.5283 6.228C20.4596 9.62102 17.4786 12.3125 13.1402 12.3125H13.1304H13.1204H13.1103H13.1H13.0897H13.0792H13.0685H13.0578H13.0469H13.0359H13.0248H13.0135H13.0022H12.9907H12.9791H12.9673H12.9555H12.9435H12.9314H12.9192H12.9069H12.8944H12.8818H12.8692H12.8564H12.8434H12.8304H12.8173H12.804H12.7906H12.7771H12.7635H12.7498H12.736H12.7221H12.7081H12.6939H12.6796H12.6653H12.6508H12.6362H12.6216H12.6068H12.5919H12.5769H12.5618H12.5466H12.5312H12.5158H12.5003H12.4847H12.469H12.4532H12.4373H12.4213H12.4052H12.3889H12.3726H12.3562H12.3397H12.3232H12.3065H12.2897H12.2728H12.2559H12.2388H12.2216H12.2044H12.1871H12.1697H12.1522H12.1346H12.1169H12.0991H12.0812H12.0633H12.0453H12.0271H12.0089H11.9907H11.9723H11.9538H11.9353H11.9167H11.898H11.8792H11.8603H11.8414H11.8224H11.8033H11.7841H11.7649H11.7456H11.7262H11.7067H11.6871H11.6675H11.6478H11.628H11.6082H11.5883H11.5683H11.5482H11.5281H11.5079H11.4876H11.4673H11.4469H11.4264H11.4059H11.3853H11.3646H11.3439H11.3231H11.3022H11.2813H11.2603H11.2393H11.2182H11.197H11.1758H11.1545H11.1332H11.1118H11.0903H11.0688H11.0472H11.0256H11.0039H10.9821H10.9603H10.9385H10.9166H10.8946H10.8726H10.8506H10.8284H10.8063H10.7841H10.7618H10.7395H10.7171H10.6947H10.6723H10.6498H10.6273H10.6047H10.582H10.5594H10.5366H10.5139H10.4911H10.4682H10.4453H10.4224H10.3995H10.3765H10.3534H10.3303H10.3072H10.2841H10.2609H10.2376H10.2144H10.1911H10.1677H10.1444H10.121H10.0976H10.0741H10.0506H10.0271H10.0035H9.97996H9.95635H9.93271H9.90904H9.88535H9.86163H9.83789H9.81412H9.79033H9.76651H9.74267H9.71881H9.69492H9.67101H9.64708H9.62314H9.59917H9.57518H9.55117H9.52714H9.5031H9.47904H9.45497H9.43087H9.40677H9.38264H9.35851H9.33436H9.3102H9.28602H9.26183H9.23764H9.21343H9.18921H9.16498H9.14074H9.1165H9.09225H9.06799H9.04372H9.01945H8.99517H8.97089H8.9466H8.92231H8.89802H8.87372H8.84943H8.82513H8.80083H8.77653H8.75223H8.72793H8.70363H8.67934H8.65505H8.63076H8.60648H8.5822H8.55792H8.53366H8.50939H8.48514H8.46089H8.43665H8.41242H8.3882H8.36399H8.33978H8.31559H8.29141H8.26725H8.24309H8.21895H8.19482H8.17071H8.14661H8.12253H8.09847H8.07442H8.05038H8.02637H8.00238H7.9784H7.95444H7.93051H7.90659H7.8827H7.85883H7.83498H7.81115H7.78735H7.76357H7.73982H7.71609H7.69239H7.66872H7.64507H7.62145H7.59786H7.5743H7.55076H7.52726H7.50379H7.48035H7.45694H7.43357H7.41022H7.38692H7.36364H7.3404H7.3172H7.29403H7.2709H7.2478H7.22475H7.20173H7.17875H7.15581H7.13291H7.11005H7.08723H7.06446H7.04172H7.01903H6.99639H6.97378H6.95122H6.92871H6.90625H6.88383H6.86145H6.83913H6.81685H6.79462H6.77244H6.75031H6.72823H6.70621H6.68423H6.66231H6.64044H6.61862H6.59686H6.57515H6.5535H6.5319H6.51036H6.48888H6.46745H6.44608H6.42477H6.40352H6.38234H6.36121H6.34014H6.31913H6.29819H6.2773H6.25649H6.23573H6.21504H6.19442H6.17386H6.15337H6.13294H6.11258H6.09229H6.07207H6.05192H6.03184H6.01183H5.99188H5.97201H5.95222H5.93249H5.91284H5.89326H5.87376H5.85433H5.83498H5.81571H5.79651H5.77738H5.75834H5.73938H5.72049H5.70168H5.68296H5.66431H5.64575H5.62727H5.60887H5.59055H5.57232H5.55417H5.53611H5.51813H5.50024H5.48243H5.46472H5.44709H5.42955H5.4121H5.39473H5.37746H5.36028H5.34319H5.32619H5.30929H5.29247H5.27576H5.25913H5.2426H5.22617H5.20983H5.19359H5.17744H5.1614H5.14545H5.1296H5.11385H5.0982H5.08265H5.0672H5.05186H5.03662H5.02148H5.00644H4.99151H4.97668H4.96196H4.94734H4.93283H4.91843H4.90413H4.88995H4.87587H4.8619H4.84804H4.83429H4.82065H4.80713H4.79372H4.78042H4.76723H4.75416H4.7412H4.72836H4.71563H4.70302H4.69053H4.67815H4.6659H4.65376H4.64174H4.62984H4.61806H4.6064H4.59487H4.58345H4.57216H4.56099H4.54995H4.53903H4.52824H4.51757H4.50703H4.49661H4.48632H4.47616H4.46613H4.45623H4.44646H4.43682H4.42731H4.41793H4.40868H4.39957H4.39059H4.38174H4.37303H4.36445H4.35601H4.34771H4.33954H4.33151H4.32361H4.31586H4.30824H4.30077H4.29343H4.28624H4.27918H4.27227H4.2655H4.25888H4.2524H4.24606H4.23987H4.23382H4.22792H4.22217H4.21656H4.2111H4.20579H4.20063H4.19562H4.19076H4.18605H4.18149H4.17708H4.17283H4.16873H4.16478H4.16099H4.15735H4.15386H4.15054H4.14737H4.14435H4.1415H4.1388H4.13626H4.13388H4.13167H4.12961H4.12771H4.12598H4.12441H4.123H4.12175H4.12067H4.11975H4.119H4.11842H4.118H4.11775L4.11766 10.3125L4.11775 8.3125H4.118H4.11842H4.119H4.11975H4.12067H4.12175H4.123H4.12441H4.12598H4.12771H4.12961H4.13167H4.13388H4.13626H4.1388H4.1415H4.14435H4.14737H4.15054H4.15386H4.15735H4.16099H4.16478H4.16873H4.17283H4.17708H4.18149H4.18605H4.19076H4.19562H4.20063H4.20579H4.2111H4.21656H4.22217H4.22792H4.23382H4.23987H4.24606H4.2524H4.25888H4.2655H4.27227H4.27918H4.28624H4.29343H4.30077H4.30824H4.31586H4.32361H4.33151H4.33954H4.34771H4.35601H4.36445H4.37303H4.38174H4.39059H4.39957H4.40868H4.41793H4.42731H4.43682H4.44646H4.45623H4.46613H4.47616H4.48632H4.49661H4.50703H4.51757H4.52824H4.53903H4.54995H4.56099H4.57216H4.58345H4.59487H4.6064H4.61806H4.62984H4.64174H4.65376H4.6659H4.67815H4.69053H4.70302H4.71563H4.72836H4.7412H4.75416H4.76723H4.78042H4.79372H4.80713H4.82065H4.83429H4.84804H4.8619H4.87587H4.88995H4.90413H4.91843H4.93283H4.94734H4.96196H4.97668H4.99151H5.00644H5.02148H5.03662H5.05186H5.0672H5.08265H5.0982H5.11385H5.1296H5.14545H5.1614H5.17744H5.19359H5.20983H5.22617H5.2426H5.25913H5.27576H5.29247H5.30929H5.32619H5.34319H5.36028H5.37746H5.39473H5.4121H5.42955H5.44709H5.46472H5.48243H5.50024H5.51813H5.53611H5.55417H5.57232H5.59055H5.60887H5.62727H5.64575H5.66431H5.68296H5.70168H5.72049H5.73938H5.75834H5.77738H5.79651H5.81571H5.83498H5.85433H5.87376H5.89326H5.91284H5.93249H5.95222H5.97201H5.99188H6.01183H6.03184H6.05192H6.07207H6.09229H6.11258H6.13294H6.15337H6.17386H6.19442H6.21504H6.23573H6.25649H6.2773H6.29819H6.31913H6.34014H6.36121H6.38234H6.40352H6.42477H6.44608H6.46745H6.48888H6.51036H6.5319H6.5535H6.57515H6.59686H6.61862H6.64044H6.66231H6.68423H6.70621H6.72823H6.75031H6.77244H6.79462H6.81685H6.83913H6.86145H6.88383H6.90625H6.92871H6.95122H6.97378H6.99639H7.01903H7.04172H7.06446H7.08723H7.11005H7.13291H7.15581H7.17875H7.20173H7.22475H7.2478H7.2709H7.29403H7.3172H7.3404H7.36364H7.38692H7.41022H7.43357H7.45694H7.48035H7.50379H7.52726H7.55076H7.5743H7.59786H7.62145H7.64507H7.66872H7.69239H7.71609H7.73982H7.76357H7.78735H7.81115H7.83498H7.85883H7.8827H7.90659H7.93051H7.95444H7.9784H8.00238H8.02637H8.05038H8.07442H8.09847H8.12253H8.14661H8.17071H8.19482H8.21895H8.24309H8.26725H8.29141H8.31559H8.33978H8.36399H8.3882H8.41242H8.43665H8.46089H8.48514H8.50939H8.53366H8.55792H8.5822H8.60648H8.63076H8.65505H8.67934H8.70363H8.72793H8.75223H8.77653H8.80083H8.82513H8.84943H8.87372H8.89802H8.92231H8.9466H8.97089H8.99517H9.01945H9.04372H9.06799H9.09225H9.1165H9.14074H9.16498H9.18921H9.21343H9.23764H9.26183H9.28602H9.3102H9.33436H9.35851H9.38264H9.40677H9.43087H9.45497H9.47904H9.5031H9.52714H9.55117H9.57518H9.59917H9.62314H9.64708H9.67101H9.69492H9.71881H9.74267H9.76651H9.79033H9.81412H9.83789H9.86163H9.88535H9.90904H9.93271H9.95635H9.97996H10.0035H10.0271H10.0506H10.0741H10.0976H10.121H10.1444H10.1677H10.1911H10.2144H10.2376H10.2609H10.2841H10.3072H10.3303H10.3534H10.3765H10.3995H10.4224H10.4453H10.4682H10.4911H10.5139H10.5366H10.5594H10.582H10.6047H10.6273H10.6498H10.6723H10.6947H10.7171H10.7395H10.7618H10.7841H10.8063H10.8284H10.8506H10.8726H10.8946H10.9166H10.9385H10.9603H10.9821H11.0039H11.0256H11.0472H11.0688H11.0903H11.1118H11.1332H11.1545H11.1758H11.197H11.2182H11.2393H11.2603H11.2813H11.3022H11.3231H11.3439H11.3646H11.3853H11.4059H11.4264H11.4469H11.4673H11.4876H11.5079H11.5281H11.5482H11.5683H11.5883H11.6082H11.628H11.6478H11.6675H11.6871H11.7067H11.7262H11.7456H11.7649H11.7841H11.8033H11.8224H11.8414H11.8603H11.8792H11.898H11.9167H11.9353H11.9538H11.9723H11.9907H12.0089H12.0271H12.0453H12.0633H12.0812H12.0991H12.1169H12.1346H12.1522H12.1697H12.1871H12.2044H12.2216H12.2388H12.2559H12.2728H12.2897H12.3065H12.3232H12.3397H12.3562H12.3726H12.3889H12.4052H12.4213H12.4373H12.4532H12.469H12.4847H12.5003H12.5158H12.5312H12.5466H12.5618H12.5769H12.5919H12.6068H12.6216H12.6362H12.6508H12.6653H12.6796H12.6939H12.7081H12.7221H12.736H12.7498H12.7635H12.7771H12.7906H12.804H12.8173H12.8304H12.8434H12.8564H12.8692H12.8818H12.8944H12.9069H12.9192H12.9314H12.9435H12.9555H12.9673H12.9791H12.9907H13.0022H13.0135H13.0248H13.0359H13.0469H13.0578H13.0685H13.0792H13.0897H13.1H13.1103H13.1204H13.1304H13.1402C15.8194 8.3125 16.5143 6.87898 16.5291 6.147C16.5378 5.71567 16.367 5.25127 15.9191 4.86325C15.4653 4.47016 14.6074 4.0625 13.1402 4.0625C12.0357 4.0625 11.1402 3.16707 11.1402 2.0625ZM4.11766 10.3125V12.3125C3.01309 12.3125 2.11766 11.4171 2.11766 10.3125C2.11766 9.20793 3.01309 8.3125 4.11766 8.3125V10.3125ZM23.2914 6.1875C23.2914 5.08293 24.1869 4.1875 25.2914 4.1875C30.9471 4.1875 34.9412 7.18261 34.9412 11.3438C34.9412 15.5049 30.9471 18.5 25.2914 18.5H25.2746H25.2574H25.2398H25.2218H25.2034H25.1847H25.1655H25.1459H25.1259H25.1056H25.0849H25.0638H25.0423H25.0204H24.9981H24.9755H24.9525H24.9291H24.9054H24.8813H24.8568H24.8319H24.8067H24.7811H24.7552H24.7289H24.7022H24.6752H24.6478H24.6201H24.592H24.5636H24.5348H24.5057H24.4763H24.4465H24.4163H24.3858H24.355H24.3239H24.2924H24.2605H24.2284H24.1959H24.1631H24.1299H24.0965H24.0627H24.0286H23.9942H23.9594H23.9244H23.889H23.8533H23.8173H23.781H23.7444H23.7075H23.6703H23.6328H23.595H23.5568H23.5184H23.4797H23.4407H23.4014H23.3618H23.322H23.2818H23.2413H23.2006H23.1596H23.1183H23.0768H23.0349H22.9928H22.9504H22.9077H22.8648H22.8216H22.7781H22.7344H22.6904H22.6461H22.6016H22.5569H22.5118H22.4665H22.421H22.3752H22.3292H22.2829H22.2364H22.1896H22.1426H22.0953H22.0478H22.0001H21.9521H21.9039H21.8555H21.8068H21.7579H21.7088H21.6594H21.6099H21.5601H21.5101H21.4598H21.4094H21.3587H21.3078H21.2567H21.2054H21.1539H21.1022H21.0503H20.9982H20.9458H20.8933H20.8406H20.7876H20.7345H20.6812H20.6277H20.574H20.5201H20.4661H20.4118H20.3574H20.3028H20.248H20.193H20.1378H20.0825H20.027H19.9713H19.9155H19.8595H19.8033H19.747H19.6905H19.6338H19.577H19.52H19.4629H19.4056H19.3481H19.2906H19.2328H19.1749H19.1169H19.0587H19.0004H18.9419H18.8833H18.8246H18.7657H18.7067H18.6476H18.5883H18.5289H18.4694H18.4097H18.3499H18.29H18.23H18.1699H18.1096H18.0493H17.9888H17.9282H17.8675H17.8067H17.7457H17.6847H17.6236H17.5624H17.501H17.4396H17.3781H17.3165H17.2547H17.1929H17.131H17.0691H17.007H16.9448H16.8826H16.8203H16.7579H16.6954H16.6329H16.5702H16.5075H16.4448H16.3819H16.319H16.2561H16.193H16.1299H16.0668H16.0035H15.9403H15.8769H15.8135H15.7501H15.6866H15.6231H15.5595H15.4959H15.4322H15.3685H15.3047H15.2409H15.1771H15.1132H15.0493H14.9854H14.9214H14.8574H14.7934H14.7293H14.6652H14.6012H14.537H14.4729H14.4088H14.3446H14.2804H14.2162H14.152H14.0878H14.0236H13.9594H13.8952H13.8309H13.7667H13.7025H13.6383H13.5741H13.5099H13.4457H13.3815H13.3173H13.2531H13.189H13.1249H13.0608H12.9967H12.9326H12.8686H12.8045H12.7406H12.6766H12.6127H12.5488H12.4849H12.4211H12.3573H12.2935H12.2298H12.1662H12.1025H12.039H11.9754H11.912H11.8485H11.7851H11.7218H11.6586H11.5954H11.5322H11.4691H11.4061H11.3431H11.2802H11.2174H11.1547H11.092H11.0294H10.9668H10.9044H10.842H10.7797H10.7175H10.6553H10.5933H10.5313H10.4695H10.4077H10.346H10.2844H10.2229H10.1615H10.1002H10.0389H9.97784H9.91683H9.85594H9.79515H9.73446H9.67389H9.61343H9.55309H9.49286H9.43275H9.37275H9.31288H9.25313H9.1935H9.134H9.07463H9.01539H8.95627H8.89729H8.83845H8.77974H8.72116H8.66273H8.60444H8.54629H8.48828H8.43042H8.37271H8.31515H8.25774H8.20048H8.14338H8.08643H8.02965H7.97302H7.91655H7.86025H7.80411H7.74813H7.69233H7.63669H7.58123H7.52594H7.47083H7.41589H7.36113H7.30655H7.25215H7.19794H7.14391H7.09006H7.03641H6.98295H6.92967H6.8766H6.82371H6.77103H6.71854H6.66625H6.61417H6.56229H6.51062H6.45915H6.40789H6.35684H6.30601H6.25538H6.20498H6.15479H6.10482H6.05507H6.00554H5.95624H5.90717H5.85832H5.8097H5.76131H5.71315H5.66523H5.61755H5.5701H5.52289H5.47593H5.4292H5.38272H5.33649H5.29051H5.24477H5.19929H5.15406H5.10908H5.06436H5.0199H4.9757H4.93176H4.88808H4.84467H4.80152H4.75865H4.71604H4.6737H4.63164H4.58986H4.54835H4.50711H4.46616H4.42549H4.38511H4.34501H4.3052H4.26567H4.22644H4.18749H4.14885H4.11049H4.07244H4.03468H3.99723H3.96007H3.92322H3.88668H3.85044H3.81451H3.7789H3.74359H3.7086H3.67393H3.63957H3.60553H3.57181H3.53842H3.50535H3.47261H3.44019H3.4081H3.37635H3.34493H3.31384H3.28309H3.25267H3.2226H3.19286H3.16347H3.13443H3.10573H3.07738H3.04938H3.02173H2.99443H2.96749H2.94091H2.91468H2.88881H2.86331H2.83817H2.81339H2.78898H2.76494H2.74127H2.71797H2.69504H2.67249H2.65032H2.62852H2.60711H2.58608H2.56543H2.54517H2.52529H2.5058H2.48671H2.468H2.44969H2.43178H2.41426H2.39714H2.38042H2.36411H2.34819H2.33269H2.31759H2.3029H2.28862H2.27476H2.26131H2.24827H2.23565H2.22346H2.21168H2.20033H2.1894H2.17889H2.16882H2.15917H2.14996H2.14117H2.13283H2.12492H2.11744H2.11041H2.10382H2.09767H2.09197H2.08671H2.0819H2.07754H2.07363H2.07018H2.06718H2.06464H2.06256H2.06093H2.05977H2.05907C2.05892 18.5 2.05884 18.5 2.05884 16.5C2.05884 14.5 2.05892 14.5 2.05907 14.5H2.05977H2.06093H2.06256H2.06464H2.06718H2.07018H2.07363H2.07754H2.0819H2.08671H2.09197H2.09767H2.10382H2.11041H2.11744H2.12492H2.13283H2.14117H2.14996H2.15917H2.16882H2.17889H2.1894H2.20033H2.21168H2.22346H2.23565H2.24827H2.26131H2.27476H2.28862H2.3029H2.31759H2.33269H2.34819H2.36411H2.38042H2.39714H2.41426H2.43178H2.44969H2.468H2.48671H2.5058H2.52529H2.54517H2.56543H2.58608H2.60711H2.62852H2.65032H2.67249H2.69504H2.71797H2.74127H2.76494H2.78898H2.81339H2.83817H2.86331H2.88881H2.91468H2.94091H2.96749H2.99443H3.02173H3.04938H3.07738H3.10573H3.13443H3.16347H3.19286H3.2226H3.25267H3.28309H3.31384H3.34493H3.37635H3.4081H3.44019H3.47261H3.50535H3.53842H3.57181H3.60553H3.63957H3.67393H3.7086H3.74359H3.7789H3.81451H3.85044H3.88668H3.92322H3.96007H3.99723H4.03468H4.07244H4.11049H4.14885H4.18749H4.22644H4.26567H4.3052H4.34501H4.38511H4.42549H4.46616H4.50711H4.54835H4.58986H4.63164H4.6737H4.71604H4.75865H4.80152H4.84467H4.88808H4.93176H4.9757H5.0199H5.06436H5.10908H5.15406H5.19929H5.24477H5.29051H5.33649H5.38272H5.4292H5.47593H5.52289H5.5701H5.61755H5.66523H5.71315H5.76131H5.8097H5.85832H5.90717H5.95624H6.00554H6.05507H6.10482H6.15479H6.20498H6.25538H6.30601H6.35684H6.40789H6.45915H6.51062H6.56229H6.61417H6.66625H6.71854H6.77103H6.82371H6.8766H6.92967H6.98295H7.03641H7.09006H7.14391H7.19794H7.25215H7.30655H7.36113H7.41589H7.47083H7.52594H7.58123H7.63669H7.69233H7.74813H7.80411H7.86025H7.91655H7.97302H8.02965H8.08643H8.14338H8.20048H8.25774H8.31515H8.37271H8.43042H8.48828H8.54629H8.60444H8.66273H8.72116H8.77974H8.83845H8.89729H8.95627H9.01539H9.07463H9.134H9.1935H9.25313H9.31288H9.37275H9.43275H9.49286H9.55309H9.61343H9.67389H9.73446H9.79515H9.85594H9.91683H9.97784H10.0389H10.1002H10.1615H10.2229H10.2844H10.346H10.4077H10.4695H10.5313H10.5933H10.6553H10.7175H10.7797H10.842H10.9044H10.9668H11.0294H11.092H11.1547H11.2174H11.2802H11.3431H11.4061H11.4691H11.5322H11.5954H11.6586H11.7218H11.7851H11.8485H11.912H11.9754H12.039H12.1025H12.1662H12.2298H12.2935H12.3573H12.4211H12.4849H12.5488H12.6127H12.6766H12.7406H12.8045H12.8686H12.9326H12.9967H13.0608H13.1249H13.189H13.2531H13.3173H13.3815H13.4457H13.5099H13.5741H13.6383H13.7025H13.7667H13.8309H13.8952H13.9594H14.0236H14.0878H14.152H14.2162H14.2804H14.3446H14.4088H14.4729H14.537H14.6012H14.6652H14.7293H14.7934H14.8574H14.9214H14.9854H15.0493H15.1132H15.1771H15.2409H15.3047H15.3685H15.4322H15.4959H15.5595H15.6231H15.6866H15.7501H15.8135H15.8769H15.9403H16.0035H16.0668H16.1299H16.193H16.2561H16.319H16.3819H16.4448H16.5075H16.5702H16.6329H16.6954H16.7579H16.8203H16.8826H16.9448H17.007H17.0691H17.131H17.1929H17.2547H17.3165H17.3781H17.4396H17.501H17.5624H17.6236H17.6847H17.7457H17.8067H17.8675H17.9282H17.9888H18.0493H18.1096H18.1699H18.23H18.29H18.3499H18.4097H18.4694H18.5289H18.5883H18.6476H18.7067H18.7657H18.8246H18.8833H18.9419H19.0004H19.0587H19.1169H19.1749H19.2328H19.2906H19.3481H19.4056H19.4629H19.52H19.577H19.6338H19.6905H19.747H19.8033H19.8595H19.9155H19.9713H20.027H20.0825H20.1378H20.193H20.248H20.3028H20.3574H20.4118H20.4661H20.5201H20.574H20.6277H20.6812H20.7345H20.7876H20.8406H20.8933H20.9458H20.9982H21.0503H21.1022H21.1539H21.2054H21.2567H21.3078H21.3587H21.4094H21.4598H21.5101H21.5601H21.6099H21.6594H21.7088H21.7579H21.8068H21.8555H21.9039H21.9521H22.0001H22.0478H22.0953H22.1426H22.1896H22.2364H22.2829H22.3292H22.3752H22.421H22.4665H22.5118H22.5569H22.6016H22.6461H22.6904H22.7344H22.7781H22.8216H22.8648H22.9077H22.9504H22.9928H23.0349H23.0768H23.1183H23.1596H23.2006H23.2413H23.2818H23.322H23.3618H23.4014H23.4407H23.4797H23.5184H23.5568H23.595H23.6328H23.6703H23.7075H23.7444H23.781H23.8173H23.8533H23.889H23.9244H23.9594H23.9942H24.0286H24.0627H24.0965H24.1299H24.1631H24.1959H24.2284H24.2605H24.2924H24.3239H24.355H24.3858H24.4163H24.4465H24.4763H24.5057H24.5348H24.5636H24.592H24.6201H24.6478H24.6752H24.7022H24.7289H24.7552H24.7811H24.8067H24.8319H24.8568H24.8813H24.9054H24.9291H24.9525H24.9755H24.9981H25.0204H25.0423H25.0638H25.0849H25.1056H25.1259H25.1459H25.1655H25.1847H25.2034H25.2218H25.2398H25.2574H25.2746H25.2914C29.8354 14.5 30.9412 12.3389 30.9412 11.3438C30.9412 10.3486 29.8354 8.1875 25.2914 8.1875C24.1869 8.1875 23.2914 7.29207 23.2914 6.1875ZM2.05884 16.5V18.5C0.954268 18.5 0.0588379 17.6046 0.0588379 16.5C0.0588379 15.3954 0.954268 14.5 2.05884 14.5V16.5ZM22.027 32.9375C20.9224 32.9375 20.027 32.0421 20.027 30.9375C20.027 29.8329 20.9224 28.9375 22.027 28.9375C23.2025 28.9375 23.8632 28.5729 24.2174 28.2238C24.5853 27.8613 24.7737 27.3702 24.7644 26.8481C24.7474 25.8921 24.037 24.6875 22.027 24.6875H22.0182H22.0092H21.9998H21.9902H21.9803H21.97H21.9595H21.9488H21.9377H21.9263H21.9147H21.9028H21.8905H21.8781H21.8653H21.8523H21.8389H21.8253H21.8115H21.7973H21.7829H21.7683H21.7533H21.7381H21.7226H21.7069H21.6909H21.6746H21.658H21.6413H21.6242H21.6069H21.5893H21.5715H21.5534H21.5351H21.5165H21.4977H21.4786H21.4593H21.4397H21.4199H21.3998H21.3795H21.3589H21.3382H21.3171H21.2959H21.2744H21.2526H21.2306H21.2084H21.186H21.1633H21.1404H21.1173H21.0939H21.0703H21.0465H21.0225H20.9982H20.9738H20.9491H20.9242H20.899H20.8737H20.8481H20.8223H20.7964H20.7701H20.7437H20.7171H20.6903H20.6633H20.636H20.6086H20.5809H20.5531H20.525H20.4968H20.4683H20.4397H20.4109H20.3818H20.3526H20.3232H20.2936H20.2638H20.2338H20.2036H20.1733H20.1427H20.112H20.0811H20.05H20.0187H19.9873H19.9557H19.9239H19.8919H19.8598H19.8274H19.7949H19.7623H19.7295H19.6965H19.6633H19.63H19.5965H19.5628H19.529H19.495H19.4609H19.4266H19.3922H19.3576H19.3228H19.2879H19.2528H19.2176H19.1822H19.1467H19.1111H19.0753H19.0393H19.0032H18.967H18.9306H18.8941H18.8575H18.8207H18.7838H18.7467H18.7095H18.6722H18.6348H18.5972H18.5595H18.5216H18.4837H18.4456H18.4074H18.369H18.3306H18.292H18.2533H18.2145H18.1756H18.1365H18.0974H18.0581H18.0187H17.9792H17.9396H17.8999H17.8601H17.8202H17.7802H17.74H17.6998H17.6595H17.6191H17.5785H17.5379H17.4972H17.4564H17.4155H17.3745H17.3334H17.2922H17.251H17.2096H17.1682H17.1267H17.0851H17.0434H17.0016H16.9598H16.9179H16.8759H16.8338H16.7916H16.7494H16.7071H16.6647H16.6223H16.5798H16.5372H16.4946H16.4519H16.4091H16.3663H16.3234H16.2804H16.2374H16.1943H16.1512H16.108H16.0648H16.0215H15.9782H15.9348H15.8913H15.8479H15.8043H15.7608H15.7171H15.6735H15.6298H15.586H15.5422H15.4984H15.4545H15.4106H15.3667H15.3227H15.2787H15.2347H15.1907H15.1466H15.1025H15.0583H15.0142H14.97H14.9258H14.8815H14.8373H14.793H14.7487H14.7044H14.6601H14.6158H14.5714H14.5271H14.4827H14.4383H14.394H14.3496H14.3052H14.2608H14.2164H14.172H14.1276H14.0832H14.0388H13.9944H13.95H13.9056H13.8612H13.8169H13.7725H13.7282H13.6838H13.6395H13.5952H13.5509H13.5066H13.4624H13.4181H13.3739H13.3297H13.2855H13.2414H13.1973H13.1532H13.1091H13.065H13.021H12.9771H12.9331H12.8892H12.8453H12.8015H12.7577H12.7139H12.6702H12.6265H12.5829H12.5393H12.4957H12.4522H12.4087H12.3653H12.322H12.2787H12.2354H12.1922H12.149H12.1059H12.0629H12.0199H11.977H11.9341H11.8914H11.8486H11.8059H11.7633H11.7208H11.6783H11.6359H11.5936H11.5514H11.5092H11.4671H11.425H11.3831H11.3412H11.2994H11.2577H11.216H11.1745H11.133H11.0916H11.0503H11.0091H10.968H10.9269H10.886H10.8451H10.8044H10.7637H10.7231H10.6827H10.6423H10.602H10.5619H10.5218H10.4818H10.442H10.4022H10.3626H10.323H10.2836H10.2443H10.2051H10.166H10.127H10.0881H10.0494H10.0108H9.97226H9.93387H9.89561H9.85746H9.81944H9.78155H9.74378H9.70614H9.66863H9.63125H9.594H9.55689H9.51991H9.48306H9.44635H9.40978H9.37334H9.33705H9.3009H9.26489H9.22902H9.1933H9.15772H9.12229H9.08702H9.05189H9.01691H8.98208H8.94741H8.91289H8.87853H8.84432H8.81028H8.77639H8.74266H8.7091H8.6757H8.64246H8.60939H8.57649H8.54375H8.51118H8.47879H8.44656H8.41451H8.38263H8.35093H8.31941H8.28806H8.25689H8.2259H8.1951H8.16447H8.13403H8.10378H8.07371H8.04383H8.01414H7.98464H7.95533H7.92621H7.89729H7.86856H7.84002H7.81169H7.78355H7.75561H7.72788H7.70035H7.67302H7.64589H7.61897H7.59226H7.56575H7.53946H7.51338H7.4875H7.46185H7.4364H7.41117H7.38616H7.36137H7.3368H7.31244H7.28831H7.2644H7.24072H7.21726H7.19403H7.17102H7.14825H7.12571H7.10339H7.08131H7.05947H7.03785H7.01648H6.99534H6.97445H6.95379H6.93337H6.9132H6.89327H6.87358H6.85414H6.83495H6.81601H6.79731H6.77887H6.76068H6.74274H6.72506H6.70764H6.69047H6.67356H6.65691H6.64052H6.62439H6.60853H6.59293H6.57759H6.56253H6.54773H6.5332H6.51894H6.50495H6.49124H6.4778H6.46463H6.45175H6.43914H6.42681H6.41475H6.40299H6.3915H6.3803H6.36938H6.35875H6.34841H6.33836H6.32859H6.31912H6.30994H6.30105H6.29246H6.28417H6.27617H6.26847H6.26108H6.25398H6.24718H6.24069H6.23451H6.22862H6.22305H6.21779H6.21283H6.20819H6.20385H6.19983H6.19613H6.19274H6.18967H6.18691H6.18448H6.18237H6.18057H6.17911H6.17796H6.17714H6.17665C6.17654 24.6875 6.17649 24.6875 6.17649 22.6875C6.17649 20.6875 6.17654 20.6875 6.17665 20.6875H6.17714H6.17796H6.17911H6.18057H6.18237H6.18448H6.18691H6.18967H6.19274H6.19613H6.19983H6.20385H6.20819H6.21283H6.21779H6.22305H6.22862H6.23451H6.24069H6.24718H6.25398H6.26108H6.26847H6.27617H6.28417H6.29246H6.30105H6.30994H6.31912H6.32859H6.33836H6.34841H6.35875H6.36938H6.3803H6.3915H6.40299H6.41475H6.42681H6.43914H6.45175H6.46463H6.4778H6.49124H6.50495H6.51894H6.5332H6.54773H6.56253H6.57759H6.59293H6.60853H6.62439H6.64052H6.65691H6.67356H6.69047H6.70764H6.72506H6.74274H6.76068H6.77887H6.79731H6.81601H6.83495H6.85414H6.87358H6.89327H6.9132H6.93337H6.95379H6.97445H6.99534H7.01648H7.03785H7.05947H7.08131H7.10339H7.12571H7.14825H7.17102H7.19403H7.21726H7.24072H7.2644H7.28831H7.31244H7.3368H7.36137H7.38616H7.41117H7.4364H7.46185H7.4875H7.51338H7.53946H7.56575H7.59226H7.61897H7.64589H7.67302H7.70035H7.72788H7.75561H7.78355H7.81169H7.84002H7.86856H7.89729H7.92621H7.95533H7.98464H8.01414H8.04383H8.07371H8.10378H8.13403H8.16447H8.1951H8.2259H8.25689H8.28806H8.31941H8.35093H8.38263H8.41451H8.44656H8.47879H8.51118H8.54375H8.57649H8.60939H8.64246H8.6757H8.7091H8.74266H8.77639H8.81028H8.84432H8.87853H8.91289H8.94741H8.98208H9.01691H9.05189H9.08702H9.12229H9.15772H9.1933H9.22902H9.26489H9.3009H9.33705H9.37334H9.40978H9.44635H9.48306H9.51991H9.55689H9.594H9.63125H9.66863H9.70614H9.74378H9.78155H9.81944H9.85746H9.89561H9.93387H9.97226H10.0108H10.0494H10.0881H10.127H10.166H10.2051H10.2443H10.2836H10.323H10.3626H10.4022H10.442H10.4818H10.5218H10.5619H10.602H10.6423H10.6827H10.7231H10.7637H10.8044H10.8451H10.886H10.9269H10.968H11.0091H11.0503H11.0916H11.133H11.1745H11.216H11.2577H11.2994H11.3412H11.3831H11.425H11.4671H11.5092H11.5514H11.5936H11.6359H11.6783H11.7208H11.7633H11.8059H11.8486H11.8914H11.9341H11.977H12.0199H12.0629H12.1059H12.149H12.1922H12.2354H12.2787H12.322H12.3653H12.4087H12.4522H12.4957H12.5393H12.5829H12.6265H12.6702H12.7139H12.7577H12.8015H12.8453H12.8892H12.9331H12.9771H13.021H13.065H13.1091H13.1532H13.1973H13.2414H13.2855H13.3297H13.3739H13.4181H13.4624H13.5066H13.5509H13.5952H13.6395H13.6838H13.7282H13.7725H13.8169H13.8612H13.9056H13.95H13.9944H14.0388H14.0832H14.1276H14.172H14.2164H14.2608H14.3052H14.3496H14.394H14.4383H14.4827H14.5271H14.5714H14.6158H14.6601H14.7044H14.7487H14.793H14.8373H14.8815H14.9258H14.97H15.0142H15.0583H15.1025H15.1466H15.1907H15.2347H15.2787H15.3227H15.3667H15.4106H15.4545H15.4984H15.5422H15.586H15.6298H15.6735H15.7171H15.7608H15.8043H15.8479H15.8913H15.9348H15.9782H16.0215H16.0648H16.108H16.1512H16.1943H16.2374H16.2804H16.3234H16.3663H16.4091H16.4519H16.4946H16.5372H16.5798H16.6223H16.6647H16.7071H16.7494H16.7916H16.8338H16.8759H16.9179H16.9598H17.0016H17.0434H17.0851H17.1267H17.1682H17.2096H17.251H17.2922H17.3334H17.3745H17.4155H17.4564H17.4972H17.5379H17.5785H17.6191H17.6595H17.6998H17.74H17.7802H17.8202H17.8601H17.8999H17.9396H17.9792H18.0187H18.0581H18.0974H18.1365H18.1756H18.2145H18.2533H18.292H18.3306H18.369H18.4074H18.4456H18.4837H18.5216H18.5595H18.5972H18.6348H18.6722H18.7095H18.7467H18.7838H18.8207H18.8575H18.8941H18.9306H18.967H19.0032H19.0393H19.0753H19.1111H19.1467H19.1822H19.2176H19.2528H19.2879H19.3228H19.3576H19.3922H19.4266H19.4609H19.495H19.529H19.5628H19.5965H19.63H19.6633H19.6965H19.7295H19.7623H19.7949H19.8274H19.8598H19.8919H19.9239H19.9557H19.9873H20.0187H20.05H20.0811H20.112H20.1427H20.1733H20.2036H20.2338H20.2638H20.2936H20.3232H20.3526H20.3818H20.4109H20.4397H20.4683H20.4968H20.525H20.5531H20.5809H20.6086H20.636H20.6633H20.6903H20.7171H20.7437H20.7701H20.7964H20.8223H20.8481H20.8737H20.899H20.9242H20.9491H20.9738H20.9982H21.0225H21.0465H21.0703H21.0939H21.1173H21.1404H21.1633H21.186H21.2084H21.2306H21.2526H21.2744H21.2959H21.3171H21.3382H21.3589H21.3795H21.3998H21.4199H21.4397H21.4593H21.4786H21.4977H21.5165H21.5351H21.5534H21.5715H21.5893H21.6069H21.6242H21.6413H21.658H21.6746H21.6909H21.7069H21.7226H21.7381H21.7533H21.7683H21.7829H21.7973H21.8115H21.8253H21.8389H21.8523H21.8653H21.8781H21.8905H21.9028H21.9147H21.9263H21.9377H21.9488H21.9595H21.97H21.9803H21.9902H21.9998H22.0092H22.0182H22.027C26.1862 20.6875 28.7073 23.6079 28.7638 26.7769C28.7912 28.3173 28.2268 29.8887 27.0249 31.073C25.8092 32.2709 24.083 32.9375 22.027 32.9375ZM6.17649 22.6875V20.6875C5.07192 20.6875 4.17649 21.5829 4.17649 22.6875C4.17649 23.7921 5.07192 24.6875 6.17649 24.6875V22.6875Z" fill="#D9D9D9"/>
</g>
</svg>
